<?xml version="1.0" encoding="utf-8"?>
<!-- Generator: Adobe Illustrator 23.1.1, SVG Export Plug-In . SVG Version: 6.00 Build 0)  -->
<svg version="1.1" id="图层_1" xmlns="http://www.w3.org/2000/svg" xmlns:xlink="http://www.w3.org/1999/xlink" x="0px" y="0px"
	 viewBox="0 0 240 240" style="enable-background:new 0 0 240 240;" xml:space="preserve">
<style type="text/css">
	.st0{fill:#1B85CA;}
</style>
<title>资源 1</title>
<g>
	<g id="图层_1-2">
		<path class="st0" d="M120,8.4L23.4,64.2v111.6l96.6,55.8l96.6-55.8V64.2L120,8.4z M168.1,172.4c0,4.4-3.6,8-8,8s-8-3.6-8-8V128
			H87.9v44.4c0,4.4-3.6,8-8,8s-8-3.6-8-8V67.6c0-4.4,3.6-8,8-8s8,3.6,8,8V112h64.2V67.6c0-4.4,3.6-8,8-8s8,3.6,8,8V172.4z"/>
	</g>
</g>
</svg>
